<svg width="400" height="400" viewBox="0 0 400 400" xmlns="http://www.w3.org/2000/svg"><title>Logo</title><g fill-rule="nonzero" fill="#28512D"><path d="M200 399.628c-53.333 0-103.464-20.783-141.155-58.473C21.08 303.464.372 253.259.372 200S21.08 96.536 58.845 58.845C96.536 21.155 146.667.372 200 .372c38.51 0 75.903 11.025 108.082 31.807l-4.916 7.523c-30.764-19.814-66.443-30.317-103.24-30.317-50.876 0-98.771 19.814-134.75 55.792C29.2 101.155 9.387 149.05 9.387 199.926c0 50.875 19.813 98.77 55.79 134.748 35.979 35.978 83.874 55.792 134.75 55.792 36.499 0 72.03-10.354 102.644-29.945l4.842 7.598c-32.03 20.633-69.2 31.509-107.412 31.509M348.305 333.631l-6.704-6.033c31.583-35.01 49.014-80.373 49.014-127.598a190.408 190.408 0 0 0-47.822-126.257l6.779-5.959c32.327 36.5 50.056 83.426 50.056 132.216 0 49.46-18.25 96.909-51.323 133.631"/></g></svg>
